<?xml version="1.0" encoding="UTF-8" standalone="no"?>
<svg
   xmlns:dc="http://purl.org/dc/elements/1.1/"
   xmlns:cc="http://creativecommons.org/ns#"
   xmlns:rdf="http://www.w3.org/1999/02/22-rdf-syntax-ns#"
   xmlns:svg="http://www.w3.org/2000/svg"
   xmlns="http://www.w3.org/2000/svg"
   viewBox="0 0 1088.28 1309.92"
   height="1309.92"
   width="1088.28"
   xml:space="preserve"
   id="svg2"
   version="1.1"><metadata
     id="metadata8"><rdf:RDF><cc:Work
         rdf:about=""><dc:format>image/svg+xml</dc:format><dc:type
           rdf:resource="http://purl.org/dc/dcmitype/StillImage" /></cc:Work></rdf:RDF></metadata><defs
     id="defs6" /><g
     transform="matrix(1.3333333,0,0,-1.3333333,0,1309.92)"
     id="g10"><g
       transform="scale(0.1)"
       id="g12"><path
         id="path14"
         style="fill:#6c407b;fill-opacity:1;fill-rule:nonzero;stroke:none"
         d="M 6562.47,992.609 804.641,891.391 C 557.246,887.039 352.965,1083.67 347.875,1331.05 L 190.117,9000.32 c -5.035,244.8 187.004,448.5 431.68,457.87 l 6180.573,236.89 c 260.53,9.98 474.75,-203.3 465.9,-463.87 L 7003.29,1426.28 c -8.11,-238.84 -201.88,-429.471 -440.82,-433.671" /><path
         id="path16"
         style="fill:#d0e7df;fill-opacity:1;fill-rule:nonzero;stroke:none"
         d="m 6216.83,1517.29 -5055.39,-88.88 c -217.221,-3.82 -396.581,168.83 -401.045,386.03 l -49.672,6955.47 c -0.672,94.19 73.578,171.89 167.703,175.5 l 5618.024,215.32 c 191.48,7.34 348.92,-149.42 342.42,-340.93 l -235,-6921.75 c -7.12,-209.7 -177.25,-377.08 -387.04,-380.76" /><path
         id="path18"
         style="fill:#e5665c;fill-opacity:1;fill-rule:nonzero;stroke:none"
         d="m 2297.79,8912.71 2671.88,85.16 c 126.3,4.02 222.63,114.42 209.49,240.11 l -21.17,202.64 c -23.22,222.29 -213.46,389.36 -436.89,383.68 l -2132.17,-54.21 c -225.03,-5.72 -411.55,-176.16 -437.47,-399.76 l -30.74,-265.11 c -12.15,-104.77 71.64,-195.87 177.07,-192.51" /><path
         id="path20"
         style="fill:#e5665c;fill-opacity:1;fill-rule:nonzero;stroke:none"
         d="m 1427.35,8064.63 h 24.1 c 28.45,0 51.52,-23.07 51.52,-51.52 v -474.85 c 0,-28.45 -23.07,-51.51 -51.52,-51.51 h -24.1 c -28.46,0 -51.52,23.06 -51.52,51.51 v 474.85 c 0,28.45 23.06,51.52 51.52,51.52" /><path
         id="path22"
         style="fill:#e5665c;fill-opacity:1;fill-rule:nonzero;stroke:none"
         d="m 1698.97,8064.63 h 40.18 c 16.09,0 31.25,-7.52 40.99,-20.32 l 162.81,-213.93 c 29.87,-39.25 92.51,-18.13 92.51,31.19 v 151.54 c 0,28.45 23.07,51.52 51.52,51.52 h 22.45 c 28.45,0 51.51,-23.07 51.51,-51.52 v -474.85 c 0,-28.45 -23.06,-51.51 -51.51,-51.51 h -31.11 c -16.08,0 -31.24,7.5 -40.98,20.29 l -171.91,225.66 c -29.88,39.22 -92.49,18.09 -92.49,-31.22 v -163.22 c 0,-28.45 -23.07,-51.51 -51.52,-51.51 h -22.45 c -28.45,0 -51.51,23.06 -51.51,51.51 v 474.85 c 0,28.45 23.06,51.52 51.51,51.52" /><path
         id="path24"
         style="fill:#e5665c;fill-opacity:1;fill-rule:nonzero;stroke:none"
         d="m 2294.61,7612.35 9.5,11.37 c 16.61,19.9 45.57,24.57 67.25,10.36 41.35,-27.11 85.42,-43.31 136.35,-43.31 52.02,0 83.39,20.63 83.39,56.13 0,32.2 -19.82,48.71 -116.4,73.48 -116.41,29.72 -191.53,61.91 -191.53,178.32 0,104.84 84.2,174.19 202.26,174.19 63.42,0 119.82,-14.99 168.84,-42.5 26.11,-14.65 33.34,-49.05 16.34,-73.7 l -8.75,-12.68 c -15.03,-21.8 -44.09,-28.5 -67.32,-15.79 -37.6,20.58 -74.64,32.39 -110.76,32.39 -48.72,0 -74.3,-22.29 -74.3,-52.01 0,-37.98 24.76,-50.36 124.65,-75.95 117.23,-30.54 183.28,-72.65 183.28,-175.01 0,-114.76 -87.51,-179.15 -212.17,-179.15 -69.19,0 -138.9,19.1 -199.33,57.7 -25.96,16.58 -31.04,52.51 -11.3,76.16" /><path
         id="path26"
         style="fill:#e5665c;fill-opacity:1;fill-rule:nonzero;stroke:none"
         d="m 2818.98,7734.41 v 278.7 c 0,28.45 23.07,51.52 51.52,51.52 h 24.1 c 28.46,0 51.52,-23.07 51.52,-51.52 v -275.4 c 0,-94.11 47.05,-142.82 124.66,-142.82 77.59,0 124.65,47.06 124.65,138.69 v 279.53 c 0,28.45 23.07,51.52 51.52,51.52 h 24.1 c 28.45,0 51.52,-23.07 51.52,-51.52 v -274.57 c 0,-175.02 -98.24,-260.87 -253.45,-260.87 -155.2,0 -250.14,86.68 -250.14,256.74" /><path
         id="path28"
         style="fill:#e5665c;fill-opacity:1;fill-rule:nonzero;stroke:none"
         d="m 3708.14,7783.95 c 61.92,0 97.42,33.02 97.42,83.37 0,54.49 -37.98,82.56 -99.9,82.56 h -74.79 c -28.45,0 -51.51,-23.07 -51.51,-51.52 v -62.9 c 0,-28.45 23.06,-51.51 51.51,-51.51 z m -255.92,229.16 c 0,28.45 23.07,51.52 51.52,51.52 h 212.66 c 73.47,0 130.43,-20.64 168.41,-58.61 32.19,-32.2 49.53,-77.61 49.53,-133.74 0,-71.87 -29.89,-123.16 -77.2,-155.38 -23.64,-16.09 -29.95,-48.15 -13.81,-71.76 l 53.22,-77.79 c 23.38,-34.19 -1.1,-80.6 -42.52,-80.6 h -23.65 c -17.08,0 -33.04,8.46 -42.63,22.59 l -94.83,139.74 c -9.58,14.13 -25.55,22.59 -42.62,22.59 h -19.43 c -28.45,0 -51.51,-23.06 -51.51,-51.52 v -81.89 c 0,-28.45 -23.07,-51.51 -51.52,-51.51 h -24.1 c -28.45,0 -51.52,23.06 -51.52,51.51 v 474.85" /><path
         id="path30"
         style="fill:#e5665c;fill-opacity:1;fill-rule:nonzero;stroke:none"
         d="m 4351.89,7799.68 v 0 c -17.47,42.64 -77.87,42.64 -95.34,0 v 0 c -13.89,-33.9 11.04,-71.05 47.67,-71.05 v 0 c 36.63,0 61.56,37.15 47.67,71.05 z m -70.57,269.08 h 49.1 c 20.65,0 39.31,-12.34 47.4,-31.35 l 203.83,-478.98 c 14.45,-33.98 -10.48,-71.68 -47.41,-71.68 h -20.37 c -20.95,0 -39.8,12.67 -47.71,32.07 l -26.69,65.47 c -7.9,19.39 -26.76,32.07 -47.7,32.07 h -175.1 c -20.94,0 -39.8,-12.68 -47.7,-32.07 l -26.69,-65.47 c -7.91,-19.4 -26.77,-32.07 -47.71,-32.07 h -17.07 c -36.93,0 -61.86,37.7 -47.4,71.68 l 203.82,478.98 c 8.09,19.01 26.75,31.35 47.4,31.35" /><path
         id="path32"
         style="fill:#e5665c;fill-opacity:1;fill-rule:nonzero;stroke:none"
         d="m 4752.86,8064.63 h 40.18 c 16.09,0 31.25,-7.52 41,-20.32 l 162.81,-213.93 c 29.87,-39.25 92.51,-18.13 92.51,31.19 v 151.54 c 0,28.45 23.06,51.52 51.51,51.52 h 22.45 c 28.45,0 51.52,-23.07 51.52,-51.52 v -474.85 c 0,-28.45 -23.07,-51.51 -51.52,-51.51 h -31.11 c -16.08,0 -31.24,7.5 -40.98,20.29 l -171.91,225.66 c -29.88,39.22 -92.49,18.09 -92.49,-31.22 v -163.22 c 0,-28.45 -23.06,-51.51 -51.51,-51.51 h -22.46 c -28.45,0 -51.51,23.06 -51.51,51.51 v 474.85 c 0,28.45 23.06,51.52 51.51,51.52" /><path
         id="path34"
         style="fill:#e5665c;fill-opacity:1;fill-rule:nonzero;stroke:none"
         d="m 5327.98,7775.69 c 0,164.28 123.83,298.85 301.32,298.85 82.28,0 137.26,-23.53 182.36,-57.81 23.76,-18.05 27.4,-52.39 7.84,-74.93 l -9.71,-11.2 c -17.55,-20.22 -47.38,-23.21 -69.28,-7.81 -31.42,22.08 -64.44,34.52 -112.03,34.52 -97.42,0 -167.59,-80.91 -167.59,-181.62 0,-99.07 68.52,-181.62 167.59,-181.62 48.74,0 83.55,14.39 116.69,38.52 21.15,15.41 50.4,12.9 68.25,-6.23 l 12.67,-13.58 c 20.63,-22.1 17.87,-57.15 -5.93,-75.8 -49.98,-39.19 -109.18,-60.14 -195.81,-60.14 -170.06,0 -296.37,131.26 -296.37,298.85" /><path
         id="path36"
         style="fill:#e5665c;fill-opacity:1;fill-rule:nonzero;stroke:none"
         d="m 6014.38,8064.63 h 332.86 c 28.45,0 51.51,-23.07 51.51,-51.52 v -10.06 c 0,-28.45 -23.06,-51.52 -51.51,-51.52 h -206.56 c -28.45,0 -51.51,-23.06 -51.51,-51.51 v -14.2 c 0,-28.45 23.06,-51.52 51.51,-51.52 h 169.4 c 28.45,0 51.52,-23.06 51.52,-51.51 v -10.07 c 0,-28.46 -23.07,-51.52 -51.52,-51.52 h -169.4 c -28.45,0 -51.51,-23.06 -51.51,-51.51 v -18.33 c 0,-28.45 23.06,-51.51 51.51,-51.51 h 210.68 c 28.45,0 51.52,-23.07 51.52,-51.52 v -10.07 c 0,-28.45 -23.07,-51.51 -51.52,-51.51 h -336.98 c -28.45,0 -51.52,23.06 -51.52,51.51 v 474.85 c 0,28.45 23.07,51.52 51.52,51.52" /><path
         id="path38"
         style="fill:#e5665c;fill-opacity:1;fill-rule:nonzero;stroke:none"
         d="M 2062.43,850.602 244.008,736.461 C 125.449,729.02 22.3594,819.941 14.918,938.5 L 0.425781,1169.39 C -7.01563,1287.95 83.8984,1391.04 202.457,1398.48 l 1818.423,114.14 c 118.56,7.44 221.65,-83.48 229.09,-202.04 l 14.49,-230.89 c 7.44,-118.561 -83.47,-221.651 -202.03,-229.088" /><path
         id="path40"
         style="fill:#abced2;fill-opacity:1;fill-rule:nonzero;stroke:none"
         d="M 1575.6,982.84 624.695,923.16 c -88.808,-5.578 -165.328,61.899 -170.898,150.71 v 0 c -5.574,88.81 61.902,165.33 150.715,170.9 l 950.898,59.69 c 88.81,5.57 165.33,-61.91 170.9,-150.72 v 0 c 5.58,-88.81 -61.9,-165.33 -150.71,-170.9" /><path
         id="path42"
         style="fill:#6599b6;fill-opacity:1;fill-rule:nonzero;stroke:none"
         d="m 6125.42,1740.63 c 0,486.17 394.12,880.29 880.29,880.29 486.17,0 880.29,-394.12 880.29,-880.29 0,-486.17 -394.12,-880.29 -880.29,-880.29 -486.17,0 -880.29,394.12 -880.29,880.29" /><path
         id="path44"
         style="fill:#e5665c;fill-opacity:1;fill-rule:nonzero;stroke:none"
         d="m 6604.05,1740.63 c 0,221.83 179.83,401.66 401.66,401.66 221.83,0 401.66,-179.83 401.66,-401.66 0,-221.83 -179.83,-401.66 -401.66,-401.66 -221.83,0 -401.66,179.83 -401.66,401.66" /><path
         id="path46"
         style="fill:#abced2;fill-opacity:1;fill-rule:nonzero;stroke:none"
         d="m 1935.44,6133.33 c 16.44,-1.16 32.65,4.55 45.53,16.17 14.82,13.38 23.69,33.17 24.33,54.28 l 16.61,552.09 c 0.41,13.41 -4.46,26.19 -13.35,35.05 -5.16,5.13 -13.77,11.19 -26.06,10.75 l -625.55,-21.03 c -24.13,-0.81 -43.76,-23.85 -43.76,-51.36 v -490.21 c 0,-34.03 23.75,-62.4 54.07,-64.6 z m 4.58,-155.37 c -5.24,0 -10.51,0.19 -15.79,0.57 l -568.18,41.14 c -111.07,8.05 -198.06,104.42 -198.06,219.4 v 490.21 c 0,112.13 85.1,202.83 193.75,206.48 l 625.54,21.03 c 52.74,1.69 102.85,-18.09 140.83,-55.93 39.14,-39.01 60.62,-93.55 58.93,-149.66 l -16.61,-552.09 c -1.9,-63.17 -29.41,-123.25 -75.47,-164.83 -40.59,-36.63 -91.55,-56.32 -144.94,-56.32" /><path
         id="path48"
         style="fill:#e5665c;fill-opacity:1;fill-rule:nonzero;stroke:none"
         d="m 1432.43,6693.81 c -22.11,20.42 -54.49,-7.17 -40.07,-34.15 l 212.57,-382.25 c 39.27,-84.21 121.47,-51.42 169.83,27.37 l 396.28,645.68 c 15.36,20.97 -10.89,47.47 -30.2,30.48 l -358.62,-397.69 c -167.2,-169.63 -182.38,-79.64 -277.59,26.53 -25.85,28.83 -72.2,84.03 -72.2,84.03" /><path
         id="path50"
         style="fill:#abced2;fill-opacity:1;fill-rule:nonzero;stroke:none"
         d="m 4284.37,6532.46 -1621.92,41.3 c -37.84,0.96 -68.03,33.49 -68.03,73.28 v 0 c 0,40.48 31.21,73.3 69.72,73.3 h 1616.99 c 35.14,0 64.78,-27.5 69.17,-64.16 l 4.93,-41.3 c 5.32,-44.48 -28.24,-83.51 -70.86,-82.42" /><path
         id="path52"
         style="fill:#abced2;fill-opacity:1;fill-rule:nonzero;stroke:none"
         d="m 4284.37,6214.55 -1621.92,41.3 c -37.84,0.96 -68.03,33.49 -68.03,73.28 v 0 c 0,40.48 31.21,73.3 69.72,73.3 h 1616.99 c 35.14,0 64.78,-27.5 69.17,-64.16 l 4.93,-41.3 c 5.32,-44.48 -28.24,-83.51 -70.86,-82.42" /><path
         id="path54"
         style="fill:#abced2;fill-opacity:1;fill-rule:nonzero;stroke:none"
         d="m 1935.44,4367.8 c 16.49,-1.21 32.66,4.56 45.53,16.17 14.82,13.38 23.69,33.16 24.33,54.28 l 16.61,552.09 c 0.41,13.41 -4.46,26.18 -13.35,35.04 -5.16,5.14 -13.78,11.11 -26.07,10.77 l -625.54,-21.04 c -24.13,-0.81 -43.76,-23.85 -43.76,-51.36 v -490.21 c 0,-34.03 23.75,-62.4 54.07,-64.6 z m 4.58,-155.37 c -5.24,0 -10.51,0.19 -15.79,0.57 l -568.18,41.14 c -111.07,8.05 -198.06,104.41 -198.06,219.4 v 490.21 c 0,112.13 85.1,202.82 193.74,206.48 l 625.55,21.03 c 52.76,1.86 102.85,-18.08 140.83,-55.94 39.14,-39 60.62,-93.55 58.93,-149.65 l -16.61,-552.09 c -1.9,-63.17 -29.41,-123.25 -75.47,-164.82 -40.59,-36.63 -91.55,-56.33 -144.94,-56.33" /><path
         id="path56"
         style="fill:#e5665c;fill-opacity:1;fill-rule:nonzero;stroke:none"
         d="m 1432.43,4928.28 c -22.11,20.42 -54.49,-7.17 -40.07,-34.15 l 212.57,-382.25 c 39.27,-84.21 121.47,-51.42 169.83,27.37 l 396.28,645.68 c 15.36,20.97 -10.89,47.47 -30.2,30.48 l -358.62,-397.69 c -167.2,-169.63 -182.38,-79.64 -277.59,26.53 -25.85,28.83 -72.2,84.03 -72.2,84.03" /><path
         id="path58"
         style="fill:#abced2;fill-opacity:1;fill-rule:nonzero;stroke:none"
         d="m 1935.44,2791.6 c 16.54,-1.2 32.66,4.56 45.53,16.18 14.82,13.38 23.69,33.16 24.33,54.26 l 16.61,552.1 c 0.41,13.41 -4.46,26.19 -13.35,35.05 -5.16,5.14 -13.78,11.08 -26.07,10.76 l -625.54,-21.04 c -24.13,-0.81 -43.76,-23.86 -43.76,-51.37 v -490.2 c 0,-34.02 23.75,-62.4 54.07,-64.6 z m 4.58,-155.37 c -5.24,0 -10.51,0.2 -15.79,0.58 l -568.18,41.14 c -111.07,8.04 -198.06,104.4 -198.06,219.39 v 490.2 c 0,112.14 85.1,202.83 193.74,206.49 l 625.55,21.03 c 52.76,1.87 102.85,-18.08 140.83,-55.94 39.14,-39 60.62,-93.55 58.93,-149.64 l -16.61,-552.1 c -1.9,-63.17 -29.41,-123.24 -75.46,-164.82 -40.6,-36.63 -91.56,-56.33 -144.95,-56.33" /><path
         id="path60"
         style="fill:#e5665c;fill-opacity:1;fill-rule:nonzero;stroke:none"
         d="m 1432.43,3352.08 c -22.11,20.42 -54.49,-7.17 -40.07,-34.15 l 212.57,-382.25 c 39.27,-84.21 121.47,-51.42 169.83,27.38 l 396.28,645.67 c 15.36,20.97 -10.89,47.47 -30.2,30.48 l -358.62,-397.69 c -167.2,-169.63 -182.38,-79.64 -277.59,26.53 -25.85,28.83 -72.2,84.03 -72.2,84.03" /><path
         id="path62"
         style="fill:#abced2;fill-opacity:1;fill-rule:nonzero;stroke:none"
         d="m 4284.37,3190.73 -1621.92,41.3 c -37.84,0.96 -68.03,33.49 -68.03,73.28 v 0 c 0,40.48 31.21,73.3 69.72,73.3 h 1616.99 c 35.14,0 64.78,-27.5 69.17,-64.16 l 4.93,-41.3 c 5.32,-44.48 -28.24,-83.51 -70.86,-82.42" /><path
         id="path64"
         style="fill:#abced2;fill-opacity:1;fill-rule:nonzero;stroke:none"
         d="m 4284.37,2872.82 -1621.92,41.3 c -37.84,0.96 -68.03,33.49 -68.03,73.28 v 0 c 0,40.48 31.21,73.3 69.72,73.3 h 1616.99 c 35.14,0 64.78,-27.5 69.17,-64.16 l 4.93,-41.3 c 5.32,-44.47 -28.24,-83.51 -70.86,-82.42" /><path
         id="path66"
         style="fill:#f7986e;fill-opacity:1;fill-rule:nonzero;stroke:none"
         d="m 3162.96,4754.39 c 0,0 -358.09,-7.63 -456.28,146.92 -98.18,154.56 68.4,289 68.4,289 l 532.72,-283.68 -144.84,-152.24" /><path
         id="path68"
         style="fill:#6599b6;fill-opacity:1;fill-rule:nonzero;stroke:none"
         d="m 6362.91,4308.9 c -95.41,706.07 -899.55,1104.83 -899.55,1104.83 0,0 68.09,-1573.41 205.82,-1526.91 235.34,79.45 556.98,80.89 693.73,422.08" /><path
         id="path70"
         style="fill:#2f1b2f;fill-opacity:1;fill-rule:nonzero;stroke:none"
         d="m 7805.41,3474.98 327.52,-152.8 c 27.26,-12.72 37,-54.9 22.27,-96.43 l -12.34,-34.8 c -15.43,-43.53 -51.96,-70.29 -81.6,-59.79 l -335.57,118.99 79.72,224.83" /><path
         id="path72"
         style="fill:#2f1b2f;fill-opacity:1;fill-rule:nonzero;stroke:none"
         d="m 1977.37,5720.99 c 0,0 -108.06,19.54 -112.05,-3.34 -6.42,-36.9 84.92,-73.17 84.92,-73.17 l 27.13,76.51" /><path
         id="path74"
         style="fill:#2f1b2f;fill-opacity:1;fill-rule:nonzero;stroke:none"
         d="m 7692.98,3603.36 c -2,0 -4.03,0.12 -6.06,0.36 -28.25,3.32 -48.46,28.9 -45.15,57.14 l 24.81,211.63 c -0.07,19.2 -12.67,36.36 -31.12,42.11 l -1731.98,538.71 c -27.16,8.45 -42.33,37.31 -33.89,64.46 8.46,27.16 37.32,42.28 64.47,33.89 l 1731.98,-538.71 c 63.21,-19.67 105.75,-79.6 103.45,-145.75 -0.06,-1.41 -0.16,-2.82 -0.33,-4.21 l -25.1,-214.12 c -3.07,-26.21 -25.32,-45.51 -51.08,-45.51" /><path
         id="path76"
         style="fill:#e5665c;fill-opacity:1;fill-rule:nonzero;stroke:none"
         d="M 2429.86,5177.21 7658.87,3096.18 c 51.96,-17.84 200.67,99.63 246.52,291.59 l 45.23,127.56 c 18.24,51.42 -8.01,107.98 -59.05,127.24 L 2657,5689.7 2429.86,5177.21" /><path
         id="path78"
         style="fill:#2f1b2f;fill-opacity:1;fill-rule:nonzero;stroke:none"
         d="m 7137.13,3937.62 c 0,0 -8.22,-330.91 -251.63,-533.66 l -380.94,151.6 c 0,0 235.45,223.45 236.02,537.14 l 396.55,-155.08" /><path
         id="path80"
         style="fill:#9ec2ba;fill-opacity:1;fill-rule:nonzero;stroke:none"
         d="m 1977.22,5720.56 -24.81,-69.95 c -6.91,-19.5 -1.43,-41.36 14.02,-55.87 l 398.05,-374.04 c 58.25,-54.73 147.06,-65.2 213.73,-23.05 48.71,30.8 96.95,84.23 121.72,176.79 31.68,118.38 27.03,196.04 9.98,246.62 -18.07,53.64 -69.2,90.47 -126.62,93.22 l -573.87,27.44 c -14.45,0.69 -27.5,-7.88 -32.2,-21.16" /><path
         id="path82"
         style="fill:#2f1b2f;fill-opacity:1;fill-rule:nonzero;stroke:none"
         d="m 7682.82,3230.29 c -1,0 -2.02,0.19 -3,0.6 l -585.3,239.92 c -4.05,1.66 -5.99,6.3 -4.32,10.34 1.65,4.05 6.3,5.97 10.33,4.32 l 585.3,-239.92 c 4.04,-1.66 5.98,-6.29 4.32,-10.34 -1.25,-3.06 -4.21,-4.92 -7.33,-4.92" /><path
         id="path84"
         style="fill:#2f1b2f;fill-opacity:1;fill-rule:nonzero;stroke:none"
         d="m 4792.32,340.281 c 0,0 -6.15,-118.179 -87.07,-149.383 -80.92,-31.199 -313.58,-55.046 -229,-133.4097 48.53,-44.9688 283.57,-23.0977 349.71,-24.8867 66.15,-1.7813 127.48,-32.281287 177.82,10.6601 55.39,47.25 7.85,291.0973 7.85,291.0973 0,0 -57.88,-28.191 -109.17,-25.48 -73.92,3.922 -110.14,31.402 -110.14,31.402" /><path
         id="path86"
         style="fill:#e5665c;fill-opacity:1;fill-rule:nonzero;stroke:none"
         d="m 4211.82,3319.3 c 15.46,-245.36 44.68,-563.79 98.72,-953.23 103.03,-742.42 228.1,-1491.121 289.68,-1850.101 22.04,-128.41 126.94,-224.699 254.1,-233.239 l 68.34,-4.589 c 137.51,-9.243 252.42,106 246.15,246.839 l -107.61,2420.31 -10.22,384.97 c 0,0 -864.51,391.6 -839.16,-10.96" /><path
         id="path88"
         style="fill:#2f1b2f;fill-opacity:1;fill-rule:nonzero;stroke:none"
         d="m 5550.18,319.84 c 0,0 -6.15,-118.18 -87.07,-149.379 -80.92,-31.191 -313.59,-55.039 -229,-133.4102 48.53,-44.97268 283.57,-23.1016 349.71,-24.8789 66.15,-1.793 127.47,-32.293 177.82,10.6562 55.39,47.2422 7.85,291.1019 7.85,291.1019 0,0 -57.88,-28.2 -109.17,-25.481 -73.93,3.922 -110.14,31.391 -110.14,31.391" /><path
         id="path90"
         style="fill:#e5665c;fill-opacity:1;fill-rule:nonzero;stroke:none"
         d="m 4956.05,3907.28 c 0,0 -30.36,-533.26 112.35,-1561.65 103.03,-742.42 228.09,-1491.118 289.68,-1850.099 22.03,-128.41 126.93,-224.703 254.1,-233.242 l 68.34,-4.59 c 137.5,-9.23 252.41,106 246.15,246.84 l -107.61,2420.321 -21.14,796.22 -841.87,186.2" /><path
         id="path92"
         style="fill:#2f1b2f;fill-opacity:1;fill-rule:nonzero;stroke:none"
         d="m 5101.75,2136.34 -10.24,1.37 c 0.58,4.39 59.01,441.46 103.04,598.42 44.46,158.44 249.01,295.12 251.07,296.48 l 5.7,-8.63 c -2.03,-1.34 -203.39,-135.93 -246.8,-290.65 -43.85,-156.25 -102.19,-592.59 -102.77,-596.99" /><path
         id="path94"
         style="fill:#f7986e;fill-opacity:1;fill-rule:nonzero;stroke:none"
         d="m 5104.9,5546.6 -53.24,159.56 -15.49,46.45 -91.12,273.13 -11.99,-271.69 -7.17,-163.07 -2.27,-51.62 c -1.54,-35.04 -24.54,-42.41 -52.53,-72.86 -11.35,-12.34 -83.92,-87.15 -1.55,-120.93 102.6,-42.11 294.42,21.64 367.35,105.14 -0.57,0.12 -114.78,44.32 -131.99,95.89" /><path
         id="path96"
         style="fill:#f7986e;fill-opacity:1;fill-rule:nonzero;stroke:none"
         d="m 4699.79,5955.39 c 22.66,160.27 157.05,276.05 300.19,258.59 143.13,-17.44 240.79,-161.52 218.13,-321.78 -22.66,-160.27 -157.06,-276.05 -300.19,-258.6 -143.13,17.45 -240.79,161.52 -218.13,321.79" /><path
         id="path98"
         style="fill:#2f1b2f;fill-opacity:1;fill-rule:nonzero;stroke:none"
         d="m 4811.77,6025.74 c -149.45,-5.21 -221.93,74.87 -223.65,149 -2.21,95.07 62.26,179.29 137.32,143.95 75.07,-35.34 42.85,51.32 115.03,60.52 134.88,17.19 160.2,-71.89 270.59,-76.22 145.61,-5.72 311.63,-231.02 189.6,-395.46 0,0 -370.87,122.32 -488.89,118.21" /><path
         id="path100"
         style="fill:#2f1b2f;fill-opacity:1;fill-rule:nonzero;stroke:none"
         d="m 4678.7,6121.62 c 0,0 159.67,-142.76 138.62,-223.1 -21.06,-80.33 -15.74,-111.8 77.53,-154.64 93.26,-42.85 10.91,-112.44 135.18,-117.46 124.28,-5.02 276.55,131.36 276.51,355.57 -0.03,125 -77.34,206.78 -77.34,206.78 l -550.5,-67.15" /><path
         id="path102"
         style="fill:#f7986e;fill-opacity:1;fill-rule:nonzero;stroke:none"
         d="m 4736.7,5902.07 c 18.1,23.84 51.37,30.99 74.31,15.98 22.94,-15.02 26.87,-46.52 8.77,-70.36 -18.09,-23.84 -51.36,-30.99 -74.3,-15.97 -22.94,15.01 -26.87,46.51 -8.78,70.35" /><path
         id="path104"
         style="fill:#2f1b2f;fill-opacity:1;fill-rule:nonzero;stroke:none"
         d="m 5360.56,5845.7 c -1.67,0 -3.2,1.15 -3.6,2.85 -7.21,30.14 -38.29,47.5 -38.61,47.67 -1.8,0.98 -2.46,3.23 -1.48,5.03 0.99,1.8 3.24,2.44 5.04,1.48 1.39,-0.76 34.27,-19.06 42.26,-52.45 0.48,-2 -0.75,-4 -2.74,-4.47 -0.29,-0.07 -0.59,-0.11 -0.87,-0.11" /><path
         id="path106"
         style="fill:#2f1b2f;fill-opacity:1;fill-rule:nonzero;stroke:none"
         d="m 5320.13,5913.16 c -1.96,0 -3.59,1.52 -3.7,3.5 -0.12,2.04 1.44,3.79 3.49,3.91 0.41,0.03 40.86,2.75 46.63,31.69 0.4,2.01 2.32,3.34 4.36,2.92 2.01,-0.4 3.31,-2.36 2.91,-4.36 -6.89,-34.6 -51.57,-37.55 -53.48,-37.65 -0.07,-0.01 -0.14,-0.01 -0.21,-0.01" /><path
         id="path108"
         style="fill:#2f1b2f;fill-opacity:1;fill-rule:nonzero;stroke:none"
         d="m 4748.09,6324.26 c -2.58,0 -5.26,0.38 -8.01,1.14 -12.41,3.41 -21.66,9.37 -30.61,15.13 -16.65,10.72 -31.05,19.97 -62.31,10.61 -1.97,-0.6 -4.03,0.53 -4.62,2.49 -0.59,1.96 0.52,4.03 2.48,4.62 34.52,10.36 51.8,-0.74 68.47,-11.48 8.48,-5.46 17.24,-11.11 28.55,-14.22 6.14,-1.69 11.43,-0.92 16.19,2.33 16.3,11.13 20.17,46.56 20.2,46.92 0.23,2.03 1.91,3.5 4.08,3.3 2.04,-0.21 3.51,-2.03 3.31,-4.07 -0.17,-1.59 -4.26,-39.2 -23.39,-52.27 -4.39,-3 -9.19,-4.5 -14.34,-4.5" /><path
         id="path110"
         style="fill:#2f1b2f;fill-opacity:1;fill-rule:nonzero;stroke:none"
         d="m 5099.65,6314.68 c -52.78,0 -93.87,35.56 -95.77,37.22 -1.54,1.36 -1.68,3.7 -0.33,5.24 1.35,1.54 3.7,1.69 5.23,0.34 0.49,-0.43 49.58,-42.79 106.74,-34.21 2.11,0.29 3.91,-1.11 4.21,-3.12 0.31,-2.03 -1.08,-3.92 -3.12,-4.22 -5.76,-0.86 -11.43,-1.25 -16.96,-1.25" /><path
         id="path112"
         style="fill:#2f1b2f;fill-opacity:1;fill-rule:nonzero;stroke:none"
         d="m 4776.66,5821.29 c -6.16,0 -10.15,1.19 -10.26,1.23 -0.95,0.31 -1.47,1.31 -1.17,2.24 0.3,0.94 1.33,1.47 2.25,1.17 1.38,-0.43 33.81,-10.07 56.72,32.4 0.48,0.87 1.55,1.18 2.43,0.73 0.87,-0.48 1.19,-1.56 0.73,-2.43 -16.37,-30.32 -38.09,-35.34 -50.7,-35.34" /><path
         id="path114"
         style="fill:#2f1b2f;fill-opacity:1;fill-rule:nonzero;stroke:none"
         d="m 4211.83,3319.3 c 0,0 1084.03,59.22 1598.47,-64.78 l 7.66,146.66 -721.33,213.58 -582.38,-14.32 -178.91,-38.16 -126.25,-194.96 2.74,-48.02" /><path
         id="path116"
         style="fill:#6599b6;fill-opacity:1;fill-rule:nonzero;stroke:none"
         d="m 5714.09,5105.61 c 0,0 -95.42,410.28 -679.07,410.25 -1017.11,-0.05 -731.82,-829.63 -825.93,-2148.54 0,0 655.75,142.11 1604.65,-47.02 0,0 92.37,714.28 -26.98,1318.11 -31.52,159.44 -25.81,328.57 -72.67,467.2" /><path
         id="path118"
         style="fill:#6599b6;fill-opacity:1;fill-rule:nonzero;stroke:none"
         d="m 4917.91,5515.89 c 0,0 -326.32,-4.76 -568.94,-233.76 -242.62,-228.99 -555.08,-544.44 -621.37,-725.91 -81.63,-223.47 68.65,-447.69 259.48,-452.46 190.83,-4.77 361.89,133.58 361.89,133.58 l 568.94,1278.55" /><path
         id="path120"
         style="fill:#2f1b2f;fill-opacity:1;fill-rule:nonzero;stroke:none"
         d="m 5843.92,3642.03 -7.14,0.39 c 28.31,517.35 -63.27,1047 -64.2,1052.29 l 7.05,1.24 c 0.93,-5.3 92.65,-535.73 64.29,-1053.92" /><path
         id="path122"
         style="fill:#2f1b2f;fill-opacity:1;fill-rule:nonzero;stroke:none"
         d="m 4235.86,4162.92 -3.63,6.16 c 191.72,113.08 441.23,411.04 443.73,414.04 l 5.49,-4.58 c -2.51,-3.01 -252.8,-301.91 -445.59,-415.62" /><path
         id="path124"
         style="fill:#6599b6;fill-opacity:1;fill-rule:nonzero;stroke:none"
         d="m 2904.41,4695.33 c -2.38,-146.25 733.19,-680.98 1174.55,-591.69 469.3,94.94 -109.74,609.09 -109.74,609.09 l -864.78,196.01 c 0,0 -197.61,-65.2 -200.03,-213.41" /><path
         id="path126"
         style="fill:#f7986e;fill-opacity:1;fill-rule:nonzero;stroke:none"
         d="m 3104.44,4908.74 c 0,0 9.99,54.26 -34.29,92.77 -44.28,38.5 -90.54,214.33 -119.36,170.26 -28.82,-44.08 -2.28,-184.36 -46.38,-199.45 -44.1,-15.09 200.03,-63.58 200.03,-63.58" /><path
         id="path128"
         style="fill:#e5665c;fill-opacity:1;fill-rule:nonzero;stroke:none"
         d="m 2986.04,2346.72 c -6.73,-14.29 5.98,-68.91 39.95,-120.99 3.38,18.83 4.25,39.19 1.95,61.04 -1.06,10.1 -7.88,60.23 -38.21,60.23 -0.2,0 -0.4,0 -0.6,0 -1.44,-0.03 -2.45,-0.16 -3.09,-0.28 z m -229.76,-36.49 c -15.56,-21 -27.53,-108.17 4.56,-180.23 0.61,-1.38 1.22,-2.71 1.84,-4.02 10.12,23.44 16.53,47.2 19.64,69.34 8.33,59.41 -6.47,101.79 -26.04,114.91 z m -199.52,-410.59 c -67.95,-0.01 -131.73,30.78 -183.22,89.36 -72.76,82.8 -104.17,205.62 -74.68,292.03 18.96,55.54 60.99,92.28 118.35,103.44 79.66,15.47 137.22,3.89 171.11,-34.4 47.54,-53.74 23.82,-132.54 20.97,-141.36 -6.71,-20.63 -28.84,-31.91 -49.5,-25.22 -20.57,6.68 -31.86,28.74 -25.27,49.33 3.58,11.5 10.29,48.06 -5.14,65.31 -13.62,15.23 -49.05,18.59 -97.18,9.22 -29.8,-5.79 -49.1,-22.71 -59,-51.69 -20.29,-59.48 5.77,-153.83 59.35,-214.79 30.95,-35.23 83.02,-74.12 155.21,-59.49 55.01,11.15 97.02,37.87 127.82,71.36 -6.83,8.96 -13.11,18.79 -18.78,29.45 -48.87,91.83 -45.77,233.54 6.26,286.11 23.86,24.11 56.25,29.07 86.65,13.28 55.52,-28.82 83.16,-106.21 70.4,-197.16 -5.21,-37.17 -17.63,-77.87 -38.39,-116.65 21.25,-6.83 40.56,-3.17 50.06,-1.37 39.65,7.53 86.28,33.84 118.45,76.96 -56.65,66.34 -98.76,165.39 -79.03,226.92 10.84,33.8 39.33,54.46 76.22,55.25 63.98,1.62 110.18,-49.88 118.65,-130.56 4.64,-44.16 -2.28,-91.3 -19.23,-134.89 16.58,-11.29 36.33,-18.89 52.27,-8.07 86.69,58.88 61.58,122.34 58.43,129.38 -9.46,19.52 -1.18,42.76 18.34,52.22 19.54,9.47 43.13,1.03 52.6,-18.48 21.47,-44.29 31.28,-148.97 -85.23,-228.1 -39.31,-26.7 -87.53,-25.06 -134.27,4.03 -30.73,-41.57 -81.57,-86.46 -162.55,-101.83 -40.52,-7.71 -78.09,-3.03 -110.47,12.88 -40.95,-45.75 -97.63,-82.53 -172.58,-97.72 -15.69,-3.19 -31.27,-4.75 -46.62,-4.75" /></g></g></svg>