<?xml version="1.0" encoding="UTF-8"?>
<svg id="svg2" xmlns="http://www.w3.org/2000/svg" xmlns:svg="http://www.w3.org/2000/svg" xmlns:rdf="http://www.w3.org/1999/02/22-rdf-syntax-ns#" xmlns:dc="http://purl.org/dc/elements/1.1/" xmlns:cc="http://creativecommons.org/ns#" version="1.1" viewBox="0 0 1088.3 1309.9">
  <defs>
    <style>
      .cls-1 {
        fill: #d0e7df;
      }

      .cls-1, .cls-2, .cls-3, .cls-4, .cls-5, .cls-6, .cls-7, .cls-8, .cls-9 {
        stroke-width: 0px;
      }

      .cls-2 {
        fill: #2f1b2f;
      }

      .cls-3 {
        fill: #474747;
      }

      .cls-4 {
        fill: #abced2;
      }

      .cls-5 {
        fill: #666;
      }

      .cls-6 {
        fill: #9ec2ba;
      }

      .cls-7 {
        fill: #f7986e;
      }

      .cls-8 {
        fill: #6599b6;
      }

      .cls-9 {
        fill: #ccc;
      }
    </style>
  </defs>
  <g id="g10">
    <g id="g12">
      <path id="path14" class="cls-8" d="M875,1177.6l-767.7,13.5c-33,.6-60.2-25.6-60.9-58.6L25.3,109.9c-.7-32.6,24.9-59.8,57.6-61l824.1-31.6c34.7-1.3,63.3,27.1,62.1,61.8l-35.3,1040.7c-1.1,31.8-26.9,57.3-58.8,57.8"/>
      <path id="path16" class="cls-1" d="M828.9,1107.6l-674.1,11.9c-29,.5-52.9-22.5-53.5-51.5l-6.6-927.4c0-12.6,9.8-22.9,22.4-23.4l749.1-28.7c25.5-1,46.5,19.9,45.7,45.5l-31.3,922.9c-.9,28-23.6,50.3-51.6,50.8"/>
      <path id="path18" class="cls-9" d="M306.4,121.6l356.3-11.4c16.8-.5,29.7-15.3,27.9-32l-2.8-27c-3.2-29.7-28.5-51.9-58.3-51.2l-284.3,7.2c-30,.8-54.9,23.5-58.3,53.3l-4.1,35.3c-1.6,14,9.6,26.1,23.6,25.7"/>
      <path id="path20" class="cls-3" d="M190.3,234.6h3.2c3.8,0,6.9,3.1,6.9,6.9v63.3c0,3.8-3.1,6.9-6.9,6.9h-3.2c-3.8,0-6.9-3.1-6.9-6.9v-63.3c0-3.8,3.1-6.9,6.9-6.9"/>
      <path id="path22" class="cls-3" d="M226.5,234.6h5.4c2.1,0,4.2,1,5.5,2.7l21.7,28.5c4,5.2,12.3,2.4,12.3-4.2v-20.2c0-3.8,3.1-6.9,6.9-6.9h3c3.8,0,6.9,3.1,6.9,6.9v63.3c0,3.8-3.1,6.9-6.9,6.9h-4.1c-2.1,0-4.2-1-5.5-2.7l-22.9-30.1c-4-5.2-12.3-2.4-12.3,4.2v21.8c0,3.8-3.1,6.9-6.9,6.9h-3c-3.8,0-6.9-3.1-6.9-6.9v-63.3c0-3.8,3.1-6.9,6.9-6.9"/>
      <path id="path24" class="cls-3" d="M305.9,294.9l1.3-1.5c2.2-2.7,6.1-3.3,9-1.4,5.5,3.6,11.4,5.8,18.2,5.8s11.1-2.8,11.1-7.5-2.6-6.5-15.5-9.8c-15.5-4-25.5-8.3-25.5-23.8s11.2-23.2,27-23.2,16,2,22.5,5.7c3.5,2,4.4,6.5,2.2,9.8l-1.2,1.7c-2,2.9-5.9,3.8-9,2.1-5-2.7-10-4.3-14.8-4.3s-9.9,3-9.9,6.9,3.3,6.7,16.6,10.1c15.6,4.1,24.4,9.7,24.4,23.3s-11.7,23.9-28.3,23.9-18.5-2.5-26.6-7.7c-3.5-2.2-4.1-7-1.5-10.2"/>
      <path id="path26" class="cls-3" d="M375.9,278.7v-37.2c0-3.8,3.1-6.9,6.9-6.9h3.2c3.8,0,6.9,3.1,6.9,6.9v36.7c0,12.5,6.3,19,16.6,19s16.6-6.3,16.6-18.5v-37.3c0-3.8,3.1-6.9,6.9-6.9h3.2c3.8,0,6.9,3.1,6.9,6.9v36.6c0,23.3-13.1,34.8-33.8,34.8s-33.4-11.6-33.4-34.2"/>
      <path id="path28" class="cls-3" d="M494.4,272.1c8.3,0,13-4.4,13-11.1s-5.1-11-13.3-11h-10c-3.8,0-6.9,3.1-6.9,6.9v8.4c0,3.8,3.1,6.9,6.9,6.9h10.3ZM460.3,241.5c0-3.8,3.1-6.9,6.9-6.9h28.4c9.8,0,17.4,2.8,22.5,7.8,4.3,4.3,6.6,10.3,6.6,17.8s-4,16.4-10.3,20.7c-3.2,2.1-4,6.4-1.8,9.6l7.1,10.4c3.1,4.6,0,10.7-5.7,10.7h-3.2c-2.3,0-4.4-1.1-5.7-3l-12.6-18.6c-1.3-1.9-3.4-3-5.7-3h-2.6c-3.8,0-6.9,3.1-6.9,6.9v10.9c0,3.8-3.1,6.9-6.9,6.9h-3.2c-3.8,0-6.9-3.1-6.9-6.9v-63.3"/>
      <path id="path30" class="cls-3" d="M580.3,270h0c-2.3-5.7-10.4-5.7-12.7,0h0c-1.9,4.5,1.5,9.5,6.4,9.5h0c4.9,0,8.2-5,6.4-9.5h-.1ZM570.8,234.1h6.5c2.8,0,5.2,1.6,6.3,4.2l27.2,63.9c1.9,4.5-1.4,9.6-6.3,9.6h-2.7c-2.8,0-5.3-1.7-6.4-4.3l-3.6-8.7c-1.1-2.6-3.6-4.3-6.4-4.3h-23.3c-2.8,0-5.3,1.7-6.4,4.3l-3.6,8.7c-1.1,2.6-3.6,4.3-6.4,4.3h-2.3c-4.9,0-8.2-5-6.3-9.6l27.2-63.9c1.1-2.5,3.6-4.2,6.3-4.2"/>
      <path id="path32" class="cls-3" d="M633.7,234.6h5.4c2.1,0,4.2,1,5.5,2.7l21.7,28.5c4,5.2,12.3,2.4,12.3-4.2v-20.2c0-3.8,3.1-6.9,6.9-6.9h3c3.8,0,6.9,3.1,6.9,6.9v63.3c0,3.8-3.1,6.9-6.9,6.9h-4.1c-2.1,0-4.2-1-5.5-2.7l-22.9-30.1c-4-5.2-12.3-2.4-12.3,4.2v21.8c0,3.8-3.1,6.9-6.9,6.9h-3c-3.8,0-6.9-3.1-6.9-6.9v-63.3c0-3.8,3.1-6.9,6.9-6.9"/>
      <path id="path34" class="cls-3" d="M710.4,273.2c0-21.9,16.5-39.8,40.2-39.8s18.3,3.1,24.3,7.7c3.2,2.4,3.7,7,1,10l-1.3,1.5c-2.3,2.7-6.3,3.1-9.2,1-4.2-2.9-8.6-4.6-14.9-4.6-13,0-22.3,10.8-22.3,24.2s9.1,24.2,22.3,24.2,11.1-1.9,15.6-5.1c2.8-2.1,6.7-1.7,9.1.8l1.7,1.8c2.8,2.9,2.4,7.6-.8,10.1-6.7,5.2-14.6,8-26.1,8-22.7,0-39.5-17.5-39.5-39.8"/>
      <path id="path36" class="cls-3" d="M801.9,234.6h44.4c3.8,0,6.9,3.1,6.9,6.9v1.3c0,3.8-3.1,6.9-6.9,6.9h-27.5c-3.8,0-6.9,3.1-6.9,6.9v1.9c0,3.8,3.1,6.9,6.9,6.9h22.6c3.8,0,6.9,3.1,6.9,6.9v1.3c0,3.8-3.1,6.9-6.9,6.9h-22.6c-3.8,0-6.9,3.1-6.9,6.9v2.4c0,3.8,3.1,6.9,6.9,6.9h28.1c3.8,0,6.9,3.1,6.9,6.9v1.3c0,3.8-3.1,6.9-6.9,6.9h-44.9c-3.8,0-6.9-3.1-6.9-6.9v-63.3c0-3.8,3.1-6.9,6.9-6.9"/>
      <path id="path38" class="cls-3" d="M275,1196.5l-242.5,15.2c-15.8,1-29.6-11.1-30.5-26.9l-1.9-30.8c-1-15.8,11.1-29.6,26.9-30.5l242.5-15.2c15.8-1,29.6,11.1,30.5,26.9l1.9,30.8c1,15.8-11.1,29.6-26.9,30.5"/>
      <path id="path40" class="cls-9" d="M210.1,1178.9l-126.8,8c-11.8.7-22-8.3-22.8-20.1h0c-.7-11.8,8.3-22,20.1-22.8l126.8-8c11.8-.7,22,8.3,22.8,20.1h0c.7,11.8-8.3,22-20.1,22.8"/>
      <path id="path42" class="cls-8" d="M816.7,1077.8c0-64.8,52.5-117.4,117.4-117.4s117.4,52.5,117.4,117.4-52.5,117.4-117.4,117.4-117.4-52.5-117.4-117.4"/>
      <path id="path44" class="cls-9" d="M880.5,1077.8c0-29.6,24-53.6,53.6-53.6s53.6,24,53.6,53.6-24,53.6-53.6,53.6-53.6-24-53.6-53.6"/>
      <path id="path46" class="cls-4" d="M258.1,492.1c2.2.2,4.4-.6,6.1-2.2,2-1.8,3.2-4.4,3.2-7.2l2.2-73.6c0-1.8-.6-3.5-1.8-4.7-.7-.7-1.8-1.5-3.5-1.4l-83.4,2.8c-3.2.1-5.8,3.2-5.8,6.8v65.4c0,4.5,3.2,8.3,7.2,8.6l75.8,5.5h0ZM258.7,512.9h-2.1l-75.8-5.5c-14.8-1.1-26.4-13.9-26.4-29.3v-65.4c0-15,11.3-27,25.8-27.5l83.4-2.8c7-.2,13.7,2.4,18.8,7.5,5.2,5.2,8.1,12.5,7.9,20l-2.2,73.6c-.3,8.4-3.9,16.4-10.1,22-5.4,4.9-12.2,7.5-19.3,7.5"/>
      <path id="path48" class="cls-3" d="M191,417.4c-2.9-2.7-7.3,1-5.3,4.6l28.3,51c5.2,11.2,16.2,6.9,22.6-3.6l52.8-86.1c2-2.8-1.5-6.3-4-4.1l-47.8,53c-22.3,22.6-24.3,10.6-37-3.5-3.4-3.8-9.6-11.2-9.6-11.2"/>
      <path id="path50" class="cls-4" d="M571.2,438.9l-216.3-5.5c-5-.1-9.1-4.5-9.1-9.8h0c0-5.4,4.2-9.8,9.3-9.8h215.6c4.7,0,8.6,3.7,9.2,8.6l.7,5.5c.7,5.9-3.8,11.1-9.4,11"/>
      <path id="path52" class="cls-4" d="M571.2,481.3l-216.3-5.5c-5-.1-9.1-4.5-9.1-9.8h0c0-5.4,4.2-9.8,9.3-9.8h215.6c4.7,0,8.6,3.7,9.2,8.6l.7,5.5c.7,5.9-3.8,11.1-9.4,11"/>
      <path id="path54" class="cls-4" d="M258.1,727.5c2.2.2,4.4-.6,6.1-2.2,2-1.8,3.2-4.4,3.2-7.2l2.2-73.6c0-1.8-.6-3.5-1.8-4.7-.7-.7-1.8-1.5-3.5-1.4l-83.4,2.8c-3.2,0-5.8,3.2-5.8,6.8v65.4c0,4.5,3.2,8.3,7.2,8.6l75.8,5.5h0ZM258.7,748.3h-2.1l-75.8-5.5c-14.8-1.1-26.4-13.9-26.4-29.3v-65.4c0-15,11.3-27,25.8-27.5l83.4-2.8c7-.2,13.7,2.4,18.8,7.5s8.1,12.5,7.9,20l-2.2,73.6c-.3,8.4-3.9,16.4-10.1,22-5.4,4.9-12.2,7.5-19.3,7.5"/>
      <path id="path56" class="cls-3" d="M191,652.8c-2.9-2.7-7.3,1-5.3,4.6l28.3,51c5.2,11.2,16.2,6.9,22.6-3.6l52.8-86.1c2-2.8-1.5-6.3-4-4.1l-47.8,53c-22.3,22.6-24.3,10.6-37-3.5-3.4-3.8-9.6-11.2-9.6-11.2"/>
      <path id="path58" class="cls-4" d="M258.1,937.7c2.2.2,4.4-.6,6.1-2.2,2-1.8,3.2-4.4,3.2-7.2l2.2-73.6c0-1.8-.6-3.5-1.8-4.7-.7-.7-1.8-1.5-3.5-1.4l-83.4,2.8c-3.2,0-5.8,3.2-5.8,6.8v65.4c0,4.5,3.2,8.3,7.2,8.6l75.8,5.5h0ZM258.7,958.4h-2.1l-75.8-5.5c-14.8-1.1-26.4-13.9-26.4-29.3v-65.4c0-15,11.3-27,25.8-27.5l83.4-2.8c7-.2,13.7,2.4,18.8,7.5s8.1,12.5,7.9,20l-2.2,73.6c-.3,8.4-3.9,16.4-10.1,22-5.4,4.9-12.2,7.5-19.3,7.5"/>
      <path id="path60" class="cls-3" d="M191,863c-2.9-2.7-7.3,1-5.3,4.6l28.3,51c5.2,11.2,16.2,6.9,22.6-3.7l52.8-86.1c2-2.8-1.5-6.3-4-4.1l-47.8,53c-22.3,22.6-24.3,10.6-37-3.5-3.4-3.8-9.6-11.2-9.6-11.2"/>
      <path id="path62" class="cls-4" d="M571.2,884.5l-216.3-5.5c-5,0-9.1-4.5-9.1-9.8h0c0-5.4,4.2-9.8,9.3-9.8h215.6c4.7,0,8.6,3.7,9.2,8.6l.7,5.5c.7,5.9-3.8,11.1-9.4,11"/>
      <path id="path64" class="cls-4" d="M571.2,926.9l-216.3-5.5c-5,0-9.1-4.5-9.1-9.8h0c0-5.4,4.2-9.8,9.3-9.8h215.6c4.7,0,8.6,3.7,9.2,8.6l.7,5.5c.7,5.9-3.8,11.1-9.4,11"/>
      <path id="path66" class="cls-7" d="M421.7,676s-47.7,1-60.8-19.6c-13.1-20.6,9.1-38.5,9.1-38.5l71,37.8-19.3,20.3"/>
      <path id="path68" class="cls-8" d="M848.4,735.4c-12.7-94.1-119.9-147.3-119.9-147.3,0,0,9.1,209.8,27.4,203.6,31.4-10.6,74.3-10.8,92.5-56.3"/>
      <path id="path70" class="cls-2" d="M1040.7,846.6l43.7,20.4c3.6,1.7,4.9,7.3,3,12.9l-1.6,4.6c-2.1,5.8-6.9,9.4-10.9,8l-44.7-15.9,10.6-30"/>
      <path id="path72" class="cls-2" d="M263.6,547.1s-14.4-2.6-14.9.4c-.9,4.9,11.3,9.8,11.3,9.8l3.6-10.2"/>
      <path id="path74" class="cls-2" d="M1025.7,829.5h-.8c-3.8-.4-6.5-3.9-6-7.6l3.3-28.2c0-2.6-1.7-4.8-4.1-5.6l-230.9-71.8c-3.6-1.1-5.6-5-4.5-8.6s5-5.6,8.6-4.5l230.9,71.8c8.4,2.6,14.1,10.6,13.8,19.4v.6l-3.3,28.5c-.4,3.5-3.4,6.1-6.8,6.1"/>
      <path id="path76" class="cls-3" d="M324,619.6l697.2,277.5c6.9,2.4,26.8-13.3,32.9-38.9l6-17c2.4-6.9-1.1-14.4-7.9-17l-697.9-273-30.3,68.3"/>
      <path id="path78" class="cls-2" d="M951.6,784.9s-1.1,44.1-33.6,71.2l-50.8-20.2s31.4-29.8,31.5-71.6l52.9,20.7"/>
      <path id="path80" class="cls-6" d="M263.6,547.2l-3.3,9.3c-.9,2.6-.2,5.5,1.9,7.4l53.1,49.9c7.8,7.3,19.6,8.7,28.5,3.1,6.5-4.1,12.9-11.2,16.2-23.6,4.2-15.8,3.6-26.1,1.3-32.9-2.4-7.2-9.2-12.1-16.9-12.4l-76.5-3.7c-1.9,0-3.7,1.1-4.3,2.8"/>
      <path id="path82" class="cls-2" d="M1024.4,879.2h-.4l-78-32c-.5-.2-.8-.8-.6-1.4.2-.5.8-.8,1.4-.6l78,32c.5.2.8.8.6,1.4-.2.4-.6.7-1,.7"/>
      <path id="path84" class="cls-9" d="M639,1264.5s-.8,15.8-11.6,19.9c-10.8,4.2-41.8,7.3-30.5,17.8,6.5,6,37.8,3.1,46.6,3.3,8.8.2,17,4.3,23.7-1.4,7.4-6.3,1-38.8,1-38.8,0,0-7.7,3.8-14.6,3.4-9.9-.5-14.7-4.2-14.7-4.2"/>
      <path id="path86" class="cls-5" d="M561.6,867.3c2.1,32.7,6,75.2,13.2,127.1,13.7,99,30.4,198.8,38.6,246.7,2.9,17.1,16.9,30,33.9,31.1l9.1.6c18.3,1.2,33.7-14.1,32.8-32.9l-14.3-322.7-1.4-51.3s-115.3-52.2-111.9,1.5"/>
      <path id="path88" class="cls-9" d="M740,1267.3s-.8,15.8-11.6,19.9c-10.8,4.2-41.8,7.3-30.5,17.8,6.5,6,37.8,3.1,46.6,3.3,8.8.2,17,4.3,23.7-1.4,7.4-6.3,1-38.8,1-38.8,0,0-7.7,3.8-14.6,3.4-9.9-.5-14.7-4.2-14.7-4.2"/>
      <path id="path90" class="cls-5" d="M660.8,788.9s-4,71.1,15,208.2c13.7,99,30.4,198.8,38.6,246.7,2.9,17.1,16.9,30,33.9,31.1l9.1.6c18.3,1.2,33.7-14.1,32.8-32.9l-14.3-322.7-2.8-106.2-112.2-24.8"/>
      <path id="path92" class="cls-2" d="M680.2,1025.1l-1.4-.2c0-.6,7.9-58.9,13.7-79.8,5.9-21.1,33.2-39.3,33.5-39.5l.8,1.2c-.3.2-27.1,18.1-32.9,38.8-5.8,20.8-13.6,79-13.7,79.6"/>
      <path id="path94" class="cls-7" d="M680.7,570.4l-7.1-21.3-2.1-6.2-12.1-36.4-1.6,36.2-1,21.7-.3,6.9c-.2,4.7-3.3,5.7-7,9.7-1.5,1.6-11.2,11.6-.2,16.1,13.7,5.6,39.3-2.9,49-14,0,0-15.3-5.9-17.6-12.8"/>
      <path id="path96" class="cls-7" d="M626.6,515.9c3-21.4,20.9-36.8,40-34.5s32.1,21.5,29.1,42.9-20.9,36.8-40,34.5-32.1-21.5-29.1-42.9"/>
      <path id="path98" class="cls-2" d="M641.6,506.5c-19.9.7-29.6-10-29.8-19.9-.3-12.7,8.3-23.9,18.3-19.2,10,4.7,5.7-6.8,15.3-8.1,18-2.3,21.4,9.6,36.1,10.2,19.4.8,41.6,30.8,25.3,52.7,0,0-49.4-16.3-65.2-15.8"/>
      <path id="path100" class="cls-2" d="M623.8,493.7s21.3,19,18.5,29.7-2.1,14.9,10.3,20.6c12.4,5.7,1.5,15,18,15.7,16.6.7,36.9-17.5,36.9-47.4s-10.3-27.6-10.3-27.6l-73.4,9"/>
      <path id="path102" class="cls-7" d="M631.6,523c2.4-3.2,6.8-4.1,9.9-2.1,3.1,2,3.6,6.2,1.2,9.4-2.4,3.2-6.8,4.1-9.9,2.1-3.1-2-3.6-6.2-1.2-9.4"/>
      <path id="path104" class="cls-2" d="M714.7,530.5c-.2,0-.4-.2-.5-.4-1-4-5.1-6.3-5.1-6.4-.2,0-.3-.4-.2-.7,0-.2.4-.3.7-.2.2,0,4.6,2.5,5.6,7,0,.3,0,.5-.4.6h0"/>
      <path id="path106" class="cls-2" d="M709.4,521.5c-.3,0-.5-.2-.5-.5s.2-.5.5-.5c0,0,5.4-.4,6.2-4.2,0-.3.3-.4.6-.4s.4.3.4.6c-.9,4.6-6.9,5-7.1,5h0"/>
      <path id="path108" class="cls-2" d="M633.1,466.7c-.3,0-.7,0-1.1-.2-1.7-.5-2.9-1.2-4.1-2-2.2-1.4-4.1-2.7-8.3-1.4-.3,0-.5,0-.6-.3,0-.3,0-.5.3-.6,4.6-1.4,6.9,0,9.1,1.5,1.1.7,2.3,1.5,3.8,1.9.8.2,1.5.1,2.2-.3,2.2-1.5,2.7-6.2,2.7-6.3,0-.3.3-.5.5-.4.3,0,.5.3.4.5,0,.2-.6,5.2-3.1,7-.6.4-1.2.6-1.9.6"/>
      <path id="path110" class="cls-2" d="M680,468c-7,0-12.5-4.7-12.8-5s-.2-.5,0-.7.5-.2.7,0c0,0,6.6,5.7,14.2,4.6.3,0,.5.1.6.4,0,.3,0,.5-.4.6-.8.1-1.5.2-2.3.2"/>
      <path id="path112" class="cls-2" d="M636.9,533.7c-.8,0-1.4-.2-1.4-.2,0,0-.2-.2-.2-.3s.2-.2.3-.2c.2,0,4.5,1.3,7.6-4.3,0,0,.2-.2.3,0,0,0,.2.2,0,.3-2.2,4-5.1,4.7-6.8,4.7"/>
      <path id="path114" class="cls-2" d="M561.6,867.3s144.5-7.9,213.1,8.6l1-19.6-96.2-28.5-77.7,1.9-23.9,5.1-16.8,26,.4,6.4"/>
      <path id="path116" class="cls-8" d="M761.9,629.2s-12.7-54.7-90.5-54.7c-135.6,0-97.6,110.6-110.1,286.5,0,0,87.4-18.9,214,6.3,0,0,12.3-95.2-3.6-175.7-4.2-21.3-3.4-43.8-9.7-62.3"/>
      <path id="path118" class="cls-8" d="M655.7,574.5s-43.5.6-75.9,31.2c-32.3,30.5-74,72.6-82.8,96.8-10.9,29.8,9.2,59.7,34.6,60.3s48.3-17.8,48.3-17.8l75.9-170.5"/>
      <path id="path120" class="cls-2" d="M779.2,824.3h-1c3.8-69-8.4-139.7-8.6-140.4l.9-.2c0,.7,12.4,71.4,8.6,140.5"/>
      <path id="path122" class="cls-2" d="M564.8,754.9l-.5-.8c25.6-15.1,58.8-54.8,59.2-55.2l.7.6c-.3.4-33.7,40.3-59.4,55.4"/>
      <path id="path124" class="cls-8" d="M387.3,683.9c-.3,19.5,97.8,90.8,156.6,78.9,62.6-12.7-14.6-81.2-14.6-81.2l-115.3-26.1s-26.3,8.7-26.7,28.5"/>
      <path id="path126" class="cls-7" d="M413.9,655.4s1.3-7.2-4.6-12.4c-5.9-5.1-12.1-28.6-15.9-22.7-3.8,5.9-.3,24.6-6.2,26.6-5.9,2,26.7,8.5,26.7,8.5"/>
      <path id="path128" class="cls-3" d="M398.1,997c-.9,1.9.8,9.2,5.3,16.1.5-2.5.6-5.2.3-8.1-.1-1.3-1.1-8-5.1-8h-.5,0ZM367.5,1001.9c-2.1,2.8-3.7,14.4.6,24,0,.2.2.4.2.5,1.3-3.1,2.2-6.3,2.6-9.2,1.1-7.9-.9-13.6-3.5-15.3h0ZM340.9,1056.6c-9.1,0-17.6-4.1-24.4-11.9-9.7-11-13.9-27.4-10-38.9,2.5-7.4,8.1-12.3,15.8-13.8,10.6-2.1,18.3-.5,22.8,4.6,6.3,7.2,3.2,17.7,2.8,18.8-.9,2.8-3.8,4.3-6.6,3.4-2.7-.9-4.2-3.8-3.4-6.6.5-1.5,1.4-6.4-.7-8.7-1.8-2-6.5-2.5-13-1.2-4,.8-6.5,3-7.9,6.9-2.7,7.9.8,20.5,7.9,28.6,4.1,4.7,11.1,9.9,20.7,7.9,7.3-1.5,12.9-5,17-9.5-.9-1.2-1.7-2.5-2.5-3.9-6.5-12.2-6.1-31.1.8-38.1,3.2-3.2,7.5-3.9,11.6-1.8,7.4,3.8,11.1,14.2,9.4,26.3-.7,5-2.4,10.4-5.1,15.6,2.8.9,5.4.4,6.7.2,5.3-1,11.5-4.5,15.8-10.3-7.6-8.8-13.2-22.1-10.5-30.3,1.4-4.5,5.2-7.3,10.2-7.4,8.5-.2,14.7,6.7,15.8,17.4.6,5.9-.3,12.2-2.6,18,2.2,1.5,4.8,2.5,7,1.1,11.6-7.9,8.2-16.3,7.8-17.3-1.3-2.6-.2-5.7,2.4-7s5.8,0,7,2.5c2.9,5.9,4.2,19.9-11.4,30.4-5.2,3.6-11.7,3.3-17.9-.5-4.1,5.5-10.9,11.5-21.7,13.6-5.4,1-10.4.4-14.7-1.7-5.5,6.1-13,11-23,13-2.1.4-4.2.6-6.2.6"/>
    </g>
  </g>
</svg>